<svg xmlns="http://www.w3.org/2000/svg" xmlns:xlink="http://www.w3.org/1999/xlink" width="841.89" height="595.276" viewBox="0 0 841.89 595.276">
  <defs>
    <clipPath id="clip-Artboard_2_15">
      <rect width="841.89" height="595.276"/>
    </clipPath>
  </defs>
  <g id="Artboard_2_15" data-name="Artboard 2 – 15" clip-path="url(#clip-Artboard_2_15)">
    <path id="envelope-solid" d="M464,64a48,48,0,0,1,28.8,86.4L275.2,313.6a32.1,32.1,0,0,1-38.4,0L19.2,150.4A48,48,0,0,1,48,64ZM217.6,339.2a63.9,63.9,0,0,0,76.8,0L512,176V384a64.059,64.059,0,0,1-64,64H64A64.027,64.027,0,0,1,0,384V176Z" transform="translate(165 42)" fill="#fff"/>
  </g>
</svg>
