<svg xmlns="http://www.w3.org/2000/svg" xmlns:xlink="http://www.w3.org/1999/xlink" width="841.89" height="595.276" viewBox="0 0 841.89 595.276">
  <defs>
    <clipPath id="clip-Artboard_2">
      <rect width="841.89" height="595.276"/>
    </clipPath>
  </defs>
  <g id="Artboard_2" data-name="Artboard 2" clip-path="url(#clip-Artboard_2)">
    <rect width="841.89" height="595.276" fill="#fff"/>
    <rect id="Rectangle_19" data-name="Rectangle 19" width="841.89" height="595.276" fill="#be2623"/>
    <g id="Group_65" data-name="Group 65">
      <g id="Group_58" data-name="Group 58">
        <path id="Path_225" data-name="Path 225" d="M328.283,376.719v-5.754h20.25c2.066,0,3.246-1.07,3.246-2.766,0-1.808-1.18-2.84-3.246-2.84H336.4c-5.274,0-8.52-3.173-8.52-7.709,0-4.427,3.025-7.747,8.595-7.747h19.4v5.754h-19.4a2.583,2.583,0,1,0,0,5.165h12.061c5.644,0,8.669,2.507,8.669,7.856,0,4.611-2.841,8.041-8.669,8.041Z" fill="#fff"/>
        <path id="Path_226" data-name="Path 226" d="M369.9,358.867v17.852h-5.46V352.965c0-2.1,1.106-3.394,2.877-3.394a3.148,3.148,0,0,1,2.324,1.07L387.2,367.5V349.645h5.495v24.012c0,2.14-1.18,3.432-2.876,3.432a3.159,3.159,0,0,1-2.361-1.107Z" fill="#fff"/>
        <path id="Path_227" data-name="Path 227" d="M400.812,376.719V349.9h5.754v26.816Z" fill="#fff"/>
        <path id="Path_228" data-name="Path 228" d="M424.868,369.49v-5.57h9c2.8,0,4.463-1.66,4.463-4.132,0-2.544-1.659-4.131-4.463-4.131H420.511v21.062h-5.717V349.9h19.07c6.345,0,10.07,3.763,10.07,9.7,0,5.865-3.725,9.886-10.07,9.886Z" fill="#fff"/>
        <path id="Path_229" data-name="Path 229" d="M450.579,376.719V349.9h24.344v5.754H456.3v15.308H474.96v5.754Zm9.074-11.36v-4.537h14.238v4.537Z" fill="#fff"/>
        <path id="Path_230" data-name="Path 230" d="M506.245,376.719l-6.529-7.3h-8.337V364.51h10.4c2.8,0,4.352-1.66,4.352-4.5s-1.624-4.353-4.352-4.353h-13.76v21.062h-5.716V349.9h19.476c6.269,0,10,3.874,10,9.959,0,4.39-2.066,7.452-5.423,8.779l8.041,8.078Z" fill="#fff"/>
      </g>
      <g id="Group_64" data-name="Group 64">
        <g id="Group_63" data-name="Group 63">
          <path id="Path_231" data-name="Path 231" d="M383.13,279.49h-8.706A47.5,47.5,0,0,0,416.8,323.339V314.6A38.814,38.814,0,0,1,383.13,279.49Zm77.225,0a38.65,38.65,0,0,1-11.288,24.133,26.116,26.116,0,0,0,.523-5.325q0-8.963-5.353-14.75T424.176,271.58q-11.314-4.612-15.187-8.486t-3.872-10.311a13.644,13.644,0,0,1,5.31-11.1A18.136,18.136,0,0,1,416.8,238.4v-9.408a47.519,47.519,0,0,0-42.189,41.824h8.743a38.711,38.711,0,0,1,11.324-22.365,24.339,24.339,0,0,0-.524,5.119q0,9.224,5.264,15.141t18.843,11.575q9.921,4.355,13.4,6.791a18.338,18.338,0,0,1,5.223,5.263,12.122,12.122,0,0,1,1.738,6.485q0,12.619-13.148,15.184v9.446a47.509,47.509,0,0,0,43.583-43.962Zm-13.987-43.849a47.047,47.047,0,0,0-20.893-6.762v8.708a38.833,38.833,0,0,1,34.655,33.226h8.743A47.486,47.486,0,0,0,446.368,235.641Z" fill="#fff"/>
          <g id="Group_59" data-name="Group 59">
            <path id="Path_232" data-name="Path 232" d="M423.306,219.187V237.44c-.165-.009-.333-.012-.5-.017q-.846.042-1.657.13h-2.184V219.187Z" fill="#fff"/>
            <path id="Path_233" data-name="Path 233" d="M423.306,237.44v.113h-2.155q.811-.087,1.657-.13C422.973,237.428,423.141,237.431,423.306,237.44Z" fill="#fff"/>
          </g>
          <g id="Group_60" data-name="Group 60">
            <path id="Path_234" data-name="Path 234" d="M423.306,314.631v16.485h-4.339V314.648c.223,0,.446-.009.666-.017Z" fill="#fff"/>
            <path id="Path_235" data-name="Path 235" d="M419.633,314.631c-.22.008-.443.014-.666.017v-.017Z" fill="#fff"/>
          </g>
          <g id="Group_61" data-name="Group 61">
            <rect id="Rectangle_20" data-name="Rectangle 20" width="17.787" height="4.338" transform="translate(365.172 272.983)" fill="#fff"/>
          </g>
          <g id="Group_62" data-name="Group 62">
            <path id="Path_236" data-name="Path 236" d="M477.1,272.983v4.338H460.48c.011-.385.017-.769.017-1.157,0-.466-.009-.928-.026-1.391v-1.79Z" fill="#fff"/>
            <path id="Path_237" data-name="Path 237" d="M460.5,276.164c0,.388-.006.772-.017,1.157h-.009v-2.548C460.488,275.236,460.5,275.7,460.5,276.164Z" fill="#fff"/>
          </g>
        </g>
      </g>
    </g>
  </g>
</svg>
