<svg xmlns="http://www.w3.org/2000/svg" width="186.519" height="157.901" viewBox="0 0 186.519 157.901">
  <g id="Group_32" data-name="Group 32" transform="translate(-327.877 -1438.085)">
    <g id="Group_25" data-name="Group 25">
      <path id="Path_173" data-name="Path 173" d="M328.283,1595.617v-5.755h20.25c2.066,0,3.246-1.069,3.246-2.766,0-1.807-1.18-2.839-3.246-2.839H336.4c-5.274,0-8.52-3.173-8.52-7.71,0-4.426,3.025-7.746,8.595-7.746h19.4v5.754h-19.4a2.582,2.582,0,1,0,0,5.164h12.061c5.644,0,8.669,2.508,8.669,7.857,0,4.611-2.841,8.041-8.669,8.041Z" fill="#fff"/>
      <path id="Path_174" data-name="Path 174" d="M369.9,1577.765v17.852h-5.46v-23.754c0-2.1,1.106-3.394,2.877-3.394a3.15,3.15,0,0,1,2.324,1.069L387.2,1586.4v-17.852h5.495v24.012c0,2.14-1.18,3.431-2.876,3.431a3.157,3.157,0,0,1-2.361-1.106Z" fill="#fff"/>
      <path id="Path_175" data-name="Path 175" d="M400.812,1595.617V1568.8h5.754v26.816Z" fill="#fff"/>
      <path id="Path_176" data-name="Path 176" d="M424.868,1588.388v-5.571h9c2.8,0,4.463-1.659,4.463-4.131,0-2.545-1.659-4.131-4.463-4.131H420.511v21.062h-5.717V1568.8h19.07c6.345,0,10.07,3.762,10.07,9.7,0,5.865-3.725,9.886-10.07,9.886Z" fill="#fff"/>
      <path id="Path_177" data-name="Path 177" d="M450.579,1595.617V1568.8h24.344v5.754H456.3v15.307H474.96v5.755Zm9.074-11.36v-4.538h14.238v4.538Z" fill="#fff"/>
      <path id="Path_178" data-name="Path 178" d="M506.245,1595.617l-6.529-7.3h-8.337v-4.907h10.4c2.8,0,4.352-1.659,4.352-4.5s-1.624-4.353-4.352-4.353h-13.76v21.062h-5.716V1568.8h19.476c6.269,0,10,3.873,10,9.959,0,4.389-2.066,7.451-5.423,8.779l8.041,8.078Z" fill="#fff"/>
    </g>
    <g id="Group_31" data-name="Group 31">
      <g id="Group_30" data-name="Group 30">
        <path id="Path_179" data-name="Path 179" d="M383.13,1498.388h-8.706a47.5,47.5,0,0,0,42.374,43.849V1533.5A38.813,38.813,0,0,1,383.13,1498.388Zm77.225,0a38.645,38.645,0,0,1-11.288,24.132,26.113,26.113,0,0,0,.523-5.324q0-8.963-5.353-14.751t-20.061-11.968q-11.314-4.611-15.187-8.485t-3.872-10.311a13.644,13.644,0,0,1,5.31-11.1,18.117,18.117,0,0,1,6.371-3.288v-9.409a47.521,47.521,0,0,0-42.189,41.825h8.743a38.714,38.714,0,0,1,11.324-22.366,24.356,24.356,0,0,0-.524,5.12q0,9.222,5.264,15.14t18.843,11.575q9.921,4.356,13.4,6.791a18.341,18.341,0,0,1,5.223,5.264,12.119,12.119,0,0,1,1.738,6.484q0,12.621-13.148,15.185v9.446a47.509,47.509,0,0,0,43.583-43.962Zm-13.987-43.849a47.024,47.024,0,0,0-20.893-6.762v8.708a38.832,38.832,0,0,1,34.655,33.226h8.743A47.486,47.486,0,0,0,446.368,1454.539Z" fill="#fff"/>
        <g id="Group_26" data-name="Group 26">
          <path id="Path_180" data-name="Path 180" d="M423.306,1438.085v18.253c-.165-.009-.333-.012-.5-.018q-.846.044-1.657.13h-2.184v-18.365Z" fill="#fff"/>
          <path id="Path_181" data-name="Path 181" d="M423.306,1456.338v.112h-2.155q.811-.087,1.657-.13C422.973,1456.326,423.141,1456.329,423.306,1456.338Z" fill="#fff"/>
        </g>
        <g id="Group_27" data-name="Group 27">
          <path id="Path_182" data-name="Path 182" d="M423.306,1533.528v16.486h-4.339v-16.468c.223,0,.446-.009.666-.018Z" fill="#fff"/>
          <path id="Path_183" data-name="Path 183" d="M419.633,1533.528c-.22.009-.443.015-.666.018v-.018Z" fill="#fff"/>
        </g>
        <g id="Group_28" data-name="Group 28">
          <rect id="Rectangle_14" data-name="Rectangle 14" width="17.787" height="4.338" transform="translate(365.172 1491.88)" fill="#fff"/>
        </g>
        <g id="Group_29" data-name="Group 29">
          <path id="Path_184" data-name="Path 184" d="M477.1,1491.88v4.339H460.48q.016-.578.017-1.157c0-.466-.009-.929-.026-1.392v-1.79Z" fill="#fff"/>
          <path id="Path_185" data-name="Path 185" d="M460.5,1495.062q0,.58-.017,1.157h-.009v-2.549C460.488,1494.133,460.5,1494.6,460.5,1495.062Z" fill="#fff"/>
        </g>
      </g>
    </g>
  </g>
</svg>
