<svg xmlns="http://www.w3.org/2000/svg" width="186.519" height="157.902" viewBox="0 0 186.519 157.902">
  <g id="Group_74" data-name="Group 74" transform="translate(-1183.94 -219.187)">
    <g id="Group_73" data-name="Group 73">
      <g id="Group_66" data-name="Group 66">
        <path id="Path_238" data-name="Path 238" d="M1184.346,376.719v-5.754h20.25c2.066,0,3.246-1.07,3.246-2.766,0-1.808-1.18-2.84-3.246-2.84h-12.135c-5.275,0-8.521-3.173-8.521-7.709,0-4.427,3.025-7.747,8.6-7.747h19.4v5.754h-19.4a2.583,2.583,0,1,0,0,5.165H1204.6c5.644,0,8.669,2.507,8.669,7.856,0,4.611-2.841,8.041-8.669,8.041Z" fill="#be2623"/>
        <path id="Path_239" data-name="Path 239" d="M1225.96,358.867v17.852h-5.46V352.965c0-2.1,1.106-3.394,2.877-3.394a3.148,3.148,0,0,1,2.324,1.07l17.558,16.857V349.645h5.5v24.012c0,2.14-1.181,3.432-2.877,3.432a3.159,3.159,0,0,1-2.361-1.107Z" fill="#be2623"/>
        <path id="Path_240" data-name="Path 240" d="M1256.875,376.719V349.9h5.754v26.816Z" fill="#be2623"/>
        <path id="Path_241" data-name="Path 241" d="M1280.931,369.49v-5.57h9c2.8,0,4.463-1.66,4.463-4.132,0-2.544-1.659-4.131-4.463-4.131h-13.353v21.062h-5.717V349.9h19.07c6.345,0,10.07,3.763,10.07,9.7,0,5.865-3.725,9.886-10.07,9.886Z" fill="#be2623"/>
        <path id="Path_242" data-name="Path 242" d="M1306.642,376.719V349.9h24.344v5.754h-18.627v15.308h18.664v5.754Zm9.074-11.36v-4.537h14.238v4.537Z" fill="#be2623"/>
        <path id="Path_243" data-name="Path 243" d="M1362.308,376.719l-6.529-7.3h-8.336V364.51h10.4c2.8,0,4.352-1.66,4.352-4.5s-1.624-4.353-4.352-4.353h-13.759v21.062h-5.717V349.9h19.476c6.269,0,10,3.874,10,9.959,0,4.39-2.066,7.452-5.423,8.779l8.041,8.078Z" fill="#be2623"/>
      </g>
      <g id="Group_72" data-name="Group 72">
        <g id="Group_71" data-name="Group 71">
          <path id="Path_244" data-name="Path 244" d="M1239.193,279.49h-8.706a47.5,47.5,0,0,0,42.374,43.849V314.6A38.815,38.815,0,0,1,1239.193,279.49Zm77.225,0a38.65,38.65,0,0,1-11.288,24.133,26.118,26.118,0,0,0,.523-5.325q0-8.963-5.353-14.75t-20.061-11.968q-11.314-4.612-15.187-8.486t-3.872-10.311a13.644,13.644,0,0,1,5.31-11.1,18.137,18.137,0,0,1,6.371-3.289v-9.408a47.519,47.519,0,0,0-42.189,41.824h8.744a38.71,38.71,0,0,1,11.323-22.365,24.341,24.341,0,0,0-.524,5.119q0,9.224,5.264,15.141t18.843,11.575q9.921,4.355,13.4,6.791a18.338,18.338,0,0,1,5.223,5.263,12.122,12.122,0,0,1,1.738,6.485q0,12.619-13.148,15.184v9.446a47.509,47.509,0,0,0,43.583-43.962Zm-13.986-43.849a47.056,47.056,0,0,0-20.894-6.762v8.708a38.833,38.833,0,0,1,34.655,33.226h8.743A47.485,47.485,0,0,0,1302.432,235.641Z" fill="#be2623"/>
          <g id="Group_67" data-name="Group 67">
            <path id="Path_245" data-name="Path 245" d="M1279.369,219.187V237.44c-.165-.009-.333-.012-.5-.017q-.846.042-1.657.13h-2.183V219.187Z" fill="#be2623"/>
            <path id="Path_246" data-name="Path 246" d="M1279.369,237.44v.113h-2.155q.812-.087,1.657-.13C1279.036,237.428,1279.2,237.431,1279.369,237.44Z" fill="#be2623"/>
          </g>
          <g id="Group_68" data-name="Group 68">
            <path id="Path_247" data-name="Path 247" d="M1279.369,314.631v16.485h-4.338V314.648c.222,0,.445-.009.665-.017Z" fill="#be2623"/>
            <path id="Path_248" data-name="Path 248" d="M1275.7,314.631c-.22.008-.443.014-.665.017v-.017Z" fill="#be2623"/>
          </g>
          <g id="Group_69" data-name="Group 69">
            <rect id="Rectangle_21" data-name="Rectangle 21" width="17.787" height="4.338" transform="translate(1221.235 272.983)" fill="#be2623"/>
          </g>
          <g id="Group_70" data-name="Group 70">
            <path id="Path_249" data-name="Path 249" d="M1333.164,272.983v4.338h-16.621c.011-.385.017-.769.017-1.157,0-.466-.009-.928-.026-1.391v-1.79Z" fill="#be2623"/>
            <path id="Path_250" data-name="Path 250" d="M1316.56,276.164c0,.388-.006.772-.017,1.157h-.009v-2.548C1316.551,275.236,1316.56,275.7,1316.56,276.164Z" fill="#be2623"/>
          </g>
        </g>
      </g>
    </g>
  </g>
</svg>
